<svg xmlns="http://www.w3.org/2000/svg" height="800" width="1200" xml:space="preserve" y="0" x="0" id="Layer_1" version="1.1" viewBox="-23.805 -15.725 206.31 94.35"><style id="style9340" type="text/css">.st0{fill:#182c54}</style><path id="path9342" d="M19.7 56v5.6h-1.6V56H16v-1.5h5.9V56zm7.6 5.7c2.2 0 3.7-1.6 3.7-3.7s-1.4-3.7-3.6-3.7-3.7 1.6-3.7 3.7 1.4 3.7 3.6 3.7m0-5.9c1.1 0 1.9.9 1.9 2.2 0 1.3-.8 2.2-1.9 2.2-1.1 0-1.9-.9-1.9-2.2 0-1.3.8-2.2 1.9-2.2m11.8 5.8l-1.7-2.7c.8-.5 1.2-1.2 1.2-2.1 0-1.3-.9-2.4-3.1-2.4-.8 0-1.5 0-2.1.1v7H35v-2.3h.9l1.2 2.3h2zm-3.3-5.7c.7 0 1.2.3 1.2.9 0 .7-.5 1.1-1.3 1.1h-.5v-2h.6m5.5 5.7h1.6v-7.1h-1.6zm10.5.1v-7.2h-1.6v3.7L46 54.3h-.2v7.2h1.6v-3.7l4.3 3.9zm6.2 0c2.2 0 3.7-1.6 3.7-3.7s-1.4-3.7-3.6-3.7-3.7 1.6-3.7 3.7 1.4 3.7 3.6 3.7m0-5.9c1.1 0 1.9.9 1.9 2.2 0 1.3-.8 2.2-1.9 2.2-1.1 0-1.9-.9-1.9-2.2 0-1.3.8-2.2 1.9-2.2m5.8 7.1c.7-.3 1.3-1.1 1.3-1.8 0-.5-.3-.9-.8-.9-.4 0-.7.3-.7.7 0 .4.3.7.8.8-.1.4-.3.7-.7 1.1l.1.1m5.3-1.3h1.6v-7.1h-1.6zm9.8-5.6v-1.5H73V56h2.1v5.6h1.6V56zm7.5 5.6l-3.3-7.2h-.2l-3.3 7.2h1.7l.5-1.3h2.5l.5 1.3zM83.7 59h-1.4l.7-1.7zm9.2 2.6v-1.5H90v-5.6h-1.6v7.1zm2.2 0h1.6v-7.1h-1.6zm10.6 0l-3.3-7.2h-.2l-3.3 7.2h1.7l.5-1.3h2.5l.5 1.3zm-2.8-2.6h-1.4l.7-1.7zm5 3.9c.7-.3 1.3-1.1 1.3-1.8 0-.5-.3-.9-.8-.9-.4 0-.7.3-.7.7 0 .4.3.7.8.8-.1.4-.3.7-.7 1.1l.1.1m7.3-1.3v-7.2h-.6l-2.7 1 .5 1.3 1.2-.5v5.4zm5.1.1c1.6 0 2.6-.9 2.6-2 0-.7-.3-1.4-1.2-1.7.6-.3 1-.9 1-1.6 0-1.1-.9-2-2.4-2s-2.4.9-2.4 2c0 .7.3 1.3 1 1.6-.8.3-1.2 1-1.2 1.7 0 1.1 1 2 2.6 2m0-3.1c.5 0 .9.3.9.8s-.3.8-.9.8c-.5 0-.9-.4-.9-.8 0-.5.4-.8.9-.8m0-2.8c.6 0 .8.4.8.9s-.4.8-.8.8c-.5 0-.8-.3-.8-.8 0-.6.3-.9.8-.9m7.4-1.5c-1.8 0-2.7 1.3-2.7 2.5 0 1.3.9 2.3 2.2 2.3.5 0 .8-.1 1.1-.3-.7.7-1.8 1.3-2.9 1.7l.7 1.3c2.3-1 4.2-2.2 4.2-4.8 0-1.4-1-2.7-2.6-2.7m0 3.7c-.6 0-1-.5-1-1.1 0-.6.4-1.1 1-1.1s1 .5 1 1.1c0 .6-.5 1.1-1 1.1m6.6 3.7c2 0 3.1-1.1 3.1-2.5 0-1.2-.8-2.2-2.4-2.2h-.6v-1.1h2.8v-1.5h-4.4v4l.1.1c.4-.1 1-.2 1.4-.2 1 0 1.5.5 1.5 1 0 .6-.5.9-1.5.9-.5 0-1-.1-1.5-.3l-.3 1.4c.5.3 1.1.4 1.8.4" class="st0"/><path id="path9344" d="M17.8 40.3h8.6l.9-4.1h4v4.1H40V11.9H24zm13.5-21.5v10.1h-2.7zM11.7 31.5h6l-1.9 8.7H0l6.4-28.3h9.8zm53.9-19.6l-6.3 28.3h-16V11.9h8.8V32l4.5-20.1zm86.8 0h-15.9v28.3h8.6v-4.1h4.1l.9 4.1h8.6zm-7.3 17V18.8l2.6 10.1zm-11.3 3l1.7 8.4h-17.3L120 21h-6l-1.6-9h18.2l-2.1 19.9zm-19.7 0l1.7 8.4H98.5l1.8-19.3h-6l-1.6-9h18.2l-2.1 19.9zM71.6 0l-9.1 40.3h11.2l1.3-6.9h8.8l1.3 6.9h11.1L87.1 0zm4.8 24.5l2.9-15.4 3 15.4z" class="st0"/></svg>